<mxfile host="app.diagrams.net" modified="2023-11-30T16:09:01.209Z" agent="Mozilla/5.0 (Windows NT 10.0; Win64; x64) AppleWebKit/537.36 (KHTML, like Gecko) Chrome/119.0.0.0 Safari/537.36" version="22.1.5" etag="v4U6RvZfwIOGNwWW9YCs" type="github">
  <diagram name="Sayfa -1" id="EDIFpyeWmnaIAJGEdvWH">
    <mxGraphModel>
      <root>
        <mxCell id="0" />
        <mxCell id="1" parent="0" />
      </root>
    </mxGraphModel>
  </diagram>
</mxfile>
